# xmcd
#
# Track frame offsets:
#	150
#	12482
#	24022
#	35440
#	47127
#	61440
#	74825
#	88812
#	102122
#	114857
#	128132
#	141132
#	154852
#	167765
#
# Disc length: 2442 seconds
#
# Revision: 0
# Processed by: cddbd v1.5.2PL0 Copyright (c) Steve Scherf et al.
# Submitted via: audiograbber 1.83.01
#
DISCID=ba09880e
DTITLE=Orlando Silva1 - Cantores Do Radio
DYEAR=1900
DGENRE=Samba
TTITLE0=Da-Me Tuas Maos
TTITLE1=Louco
TTITLE2=Errei...erramos 
TTITLE3=Saudade
TTITLE4=Nao Terminei Tua Cancao
TTITLE5=Brasa
TTITLE6=Esquisita
TTITLE7=Ela Vai Voltar
TTITLE8=Sempre No Meu Coracao
TTITLE9=Nossas Vidas...sempre Iguais
TTITLE10=Exaltacao A Cor
TTITLE11=Amor...saudade
TTITLE12=Nao Foi O Tempo
TTITLE13=Revendo O Passado
EXTD=
EXTT0=
EXTT1=
EXTT2=
EXTT3=
EXTT4=
EXTT5=
EXTT6=
EXTT7=
EXTT8=
EXTT9=
EXTT10=
EXTT11=
EXTT12=
EXTT13=
PLAYORDER=
